<?xml version="1.0" encoding="utf-8"?>
<!-- Generator: Adobe Illustrator 24.2.3, SVG Export Plug-In . SVG Version: 6.00 Build 0)  -->
<svg version="1.1" id="Layer_1" xmlns="http://www.w3.org/2000/svg" xmlns:xlink="http://www.w3.org/1999/xlink" x="0px" y="0px"
	 viewBox="0 0 429 331.4" style="enable-background:new 0 0 429 331.4;" xml:space="preserve">
<style type="text/css">
	.st0{fill:#A9BA5A;}
	.st1{fill:#4C241D;}
	.st2{fill:#FFCE56;}
	.st3{fill:#FFDED5;}
</style>
<path class="st0" d="M381.5,245.2c0,43.9-35.6,79.5-79.5,79.5s-79.5-35.6-79.5-79.5s35.6-79.5,79.5-79.5S381.5,201.3,381.5,245.2z"
	/>
<path class="st1" d="M302.1,331.4c-47.6,0-86.3-38.7-86.3-86.3c0-47.6,38.7-86.3,86.3-86.3c47.6,0,86.3,38.7,86.3,86.3
	C388.3,292.7,349.6,331.4,302.1,331.4z M302.1,172.5c-40.1,0-72.6,32.6-72.6,72.6s32.6,72.6,72.6,72.6c40,0,72.6-32.6,72.6-72.6
	S342.1,172.5,302.1,172.5z"/>
<path class="st0" d="M306.1,230.7c0,22.2-18,40.1-40.1,40.1s-40.1-18-40.1-40.1s18-40.1,40.1-40.1S306.1,208.6,306.1,230.7z"/>
<path class="st1" d="M266,277.7c-25.9,0-47-21.1-47-47s21.1-47,47-47c25.9,0,47,21.1,47,47S291.8,277.7,266,277.7z M266,197.4
	c-18.4,0-33.3,14.9-33.3,33.3c0,18.4,14.9,33.3,33.3,33.3s33.3-14.9,33.3-33.3C299.3,212.4,284.3,197.4,266,197.4z"/>
<path class="st2" d="M310.9,281.3h-3.2c-15.1,0-27.3-12.2-27.3-27.3V86.3h57.8V254C338.2,269.1,326,281.3,310.9,281.3z"/>
<path class="st1" d="M310.9,288.1h-3.2c-18.8,0-34.1-15.3-34.1-34.1V86.3c0-3.8,3-6.8,6.8-6.8h57.8c3.8,0,6.8,3,6.8,6.8V254
	C345,272.8,329.7,288.1,310.9,288.1z M287.2,93.1V254c0,11.3,9.2,20.5,20.5,20.5h3.2c11.3,0,20.5-9.2,20.5-20.5V93.1H287.2z"/>
<path class="st1" d="M333.9,251.1h-47.7c-3.8,0-6.8-3.1-6.8-6.8s3.1-6.8,6.8-6.8h47.7c3.8,0,6.8,3,6.8,6.8S337.6,251.1,333.9,251.1z
	"/>
<path class="st1" d="M337.1,210.7h-53.7c-3.8,0-6.8-3-6.8-6.8c0-3.8,3.1-6.8,6.8-6.8h53.7c3.8,0,6.8,3.1,6.8,6.8
	C343.9,207.7,340.9,210.7,337.1,210.7z"/>
<path class="st1" d="M337.1,171.8h-53.7c-3.8,0-6.8-3.1-6.8-6.8c0-3.8,3.1-6.8,6.8-6.8h53.7c3.8,0,6.8,3,6.8,6.8
	C343.9,168.7,340.9,171.8,337.1,171.8z"/>
<path class="st0" d="M291.2,57.4h-75.8v50.6h83.1c18,0,32.5,14.6,32.5,32.5s-14.6,32.5-32.5,32.5h-83.1v50.6h75.8
	c45.9,0,83.1-37.2,83.1-83.1S337.1,57.4,291.2,57.4z"/>
<path class="st1" d="M291.2,230.3h-75.8c-3.8,0-6.8-3.1-6.8-6.8v-50.6c0-3.8,3.1-6.8,6.8-6.8h83.1c14.2,0,25.7-11.5,25.7-25.7
	s-11.5-25.7-25.7-25.7h-83.1c-3.8,0-6.8-3-6.8-6.8V57.4c0-3.8,3.1-6.8,6.8-6.8h75.8c49.6,0,89.9,40.3,89.9,89.9
	C381.1,190,340.8,230.3,291.2,230.3z M222.2,216.7h69c42,0,76.2-34.2,76.2-76.2c0-42-34.2-76.2-76.2-76.2h-69v36.9h76.2
	c21.7,0,39.3,17.6,39.3,39.3c0,21.7-17.6,39.3-39.3,39.3h-76.2V216.7z"/>
<path class="st2" d="M193.7,245.2c0,43.9-35.6,79.5-79.5,79.5s-79.5-35.6-79.5-79.5s35.6-79.5,79.5-79.5S193.7,201.3,193.7,245.2z"
	/>
<path class="st1" d="M114.3,331.4c-47.6,0-86.3-38.7-86.3-86.3c0-47.6,38.7-86.3,86.3-86.3c47.6,0,86.3,38.7,86.3,86.3
	C200.6,292.7,161.8,331.4,114.3,331.4z M114.3,172.5c-40.1,0-72.6,32.6-72.6,72.6s32.6,72.6,72.6,72.6c40,0,72.6-32.6,72.6-72.6
	S154.3,172.5,114.3,172.5z"/>
<path class="st0" d="M190.5,230.7c0,22.2-18,40.1-40.1,40.1s-40.1-18-40.1-40.1s18-40.1,40.1-40.1S190.5,208.6,190.5,230.7z"/>
<path class="st1" d="M150.4,277.7c-25.9,0-47-21.1-47-47s21.1-47,47-47s47,21.1,47,47S176.3,277.7,150.4,277.7z M150.4,197.4
	c-18.4,0-33.3,14.9-33.3,33.3c0,18.4,14.9,33.3,33.3,33.3c18.4,0,33.3-14.9,33.3-33.3C183.7,212.4,168.8,197.4,150.4,197.4z"/>
<path class="st0" d="M56.5,57.4c0-30,27.3-52.5,56.7-46.9l131.1,25.2l1.4,52.6L56.5,57.4z"/>
<path class="st1" d="M245.7,95.1c-0.4,0-0.7,0-1.1-0.1L55.4,64.1c-3.3-0.5-5.7-3.4-5.7-6.7c0-16.3,7.2-31.7,19.8-42.1
	c12.6-10.4,29-14.6,45-11.5L245.6,29c3.1,0.6,5.4,3.3,5.5,6.5l1.4,52.6c0.1,2-0.8,4-2.3,5.3C248.9,94.5,247.3,95.1,245.7,95.1z
	 M63.7,51.6l174.9,28.6l-1-38.8L112,17.2c-12.1-2.3-24.3,0.8-33.8,8.6C70.2,32.4,65.1,41.6,63.7,51.6z"/>
<path class="st0" d="M105.4,301.7h3.2c15.1,0,27.3-12.2,27.3-27.3V106.7H78.2v167.7C78.2,289.5,90.4,301.7,105.4,301.7z"/>
<path class="st1" d="M108.7,308.6h-3.2c-18.8,0-34.1-15.3-34.1-34.1V106.7c0-3.8,3.1-6.8,6.8-6.8h57.8c3.8,0,6.8,3,6.8,6.8v167.7
	C142.8,293.3,127.5,308.6,108.7,308.6z M85,113.5v160.9c0,11.3,9.2,20.5,20.5,20.5h3.2c11.3,0,20.5-9.2,20.5-20.5V113.5H85z"/>
<path class="st2" d="M109.4,109.6c11.7,8.1,25.8,12.8,41,12.8c37.5,0,68.2-28.5,71.9-65h-9.4c-13.6,0-26.7-4-39.2-9.6
	C139.5,32.4,31.5,66.3,42.1,139.1c6.7,46,36.7,84.4,83.1,84.4h75.6c0.1,0,0.2-0.1,0.2-0.2v-50.1c0-0.1-0.1-0.2-0.2-0.2h-82.8
	c-18.9,0-34.1-16.2-32.4-35.5C86.7,123.9,96.7,113.4,109.4,109.6z"/>
<g>
	<path class="st1" d="M200.7,230.3h-75.6c-45.9,0-81.9-36.3-89.8-90.2c-4.1-28.5,7.6-54.2,34.1-74.1c32-24.2,82-35.6,107-24.4
		c13.7,6.2,25.3,9,36.4,9h9.4c1.9,0,3.8,0.8,5.1,2.2c1.3,1.4,1.9,3.3,1.7,5.2c-4,40.6-37.8,71.2-78.6,71.2
		c-14.9,0-29.4-4.2-41.9-12.1c-9.1,3.8-15.3,11.7-16.1,20.9c-0.7,7.3,1.7,14.3,6.6,19.7c4.9,5.3,11.8,8.4,19,8.4h82.8
		c3.8,0,7.1,3.3,7.1,7.1v50.1C207.8,227,204.5,230.3,200.7,230.3z M152.6,50.9c-21.7,0-52.3,8.9-74.9,25.9
		c-15.5,11.7-33.1,31.9-28.8,61.3c5.7,39.1,31.5,78.5,76.3,78.5h69v-36.9h-76.2c-11,0-21.6-4.7-29-12.8
		c-7.5-8.2-11.1-18.9-10.1-30.1c1.4-15.7,12.7-29,28.7-33.8c2-0.6,4.1-0.3,5.9,0.9c11,7.6,23.8,11.6,37.1,11.6
		c31.2,0,57.5-21.6,63.9-51.4h-1.5c-13.1,0-26.4-3.2-42-10.2C166.2,51.9,159.9,50.9,152.6,50.9z"/>
	<path class="st1" d="M100.2,227.4c-0.9,0-1.9-0.2-2.8-0.6c-3.4-1.5-5-5.6-3.5-9l20-45c1.5-3.4,5.6-5,9-3.5c3.4,1.5,5,5.6,3.5,9
		l-20,45C105.3,225.9,102.8,227.4,100.2,227.4z"/>
	<path class="st1" d="M46.7,161.7c-3.3,0-6.2-2.4-6.7-5.8c-0.6-3.7,2-7.2,5.7-7.8l34.6-5.3c3.7-0.6,7.2,2,7.8,5.7
		c0.6,3.7-2,7.2-5.7,7.8l-34.6,5.3C47.3,161.7,47,161.7,46.7,161.7z"/>
	<path class="st1" d="M120.3,120.2c-3.2,0-6-2.2-6.7-5.5L101.7,56c-0.7-3.7,1.6-7.3,5.3-8c3.7-0.7,7.3,1.6,8,5.3l11.9,58.8
		c0.7,3.7-1.6,7.3-5.3,8C121.2,120.2,120.8,120.2,120.3,120.2z"/>
	<path class="st1" d="M155.3,126.2c-3.5,0-6.5-2.7-6.8-6.3l-6-73.7c-0.3-3.8,2.5-7,6.2-7.4c3.9-0.2,7,2.5,7.4,6.2l6,73.7
		c0.3,3.8-2.5,7-6.2,7.4C155.7,126.2,155.5,126.2,155.3,126.2z"/>
	<path class="st1" d="M191.6,111c-3.7,0-6.8-3-6.8-6.7l-0.6-48.1c0-3.8,3-6.9,6.7-6.9h0.1c3.7,0,6.8,3,6.8,6.7l0.6,48.1
		C198.5,107.9,195.5,111,191.6,111C191.7,111,191.6,111,191.6,111z"/>
</g>
<path class="st3" d="M208.2,311.8H204c-19.7,0-35.7-16-35.7-35.7v-43h75.6v43C243.9,295.9,227.9,311.8,208.2,311.8z"/>
<path class="st1" d="M208.2,318.7H204c-23.5,0-42.5-19.1-42.5-42.5v-43c0-3.8,3-6.8,6.8-6.8h75.7c3.8,0,6.8,3.1,6.8,6.8v43
	C250.7,299.6,231.6,318.7,208.2,318.7z M175.1,240v36.1c0,15.9,13,28.9,28.9,28.9h4.2c15.9,0,28.9-13,28.9-28.9V240H175.1z"/>
<path class="st2" d="M149.6,215.6c0,22.5-26.2,59.6-58.6,59.6s-58.6-37.1-58.6-59.6s61.8-34.5,61.8-34.5S149.6,193.1,149.6,215.6z"
	/>
<path class="st1" d="M91,282c-36.1,0-65.4-40.2-65.4-66.4c0-26.8,56.1-39,67.3-41.2c0.9-0.2,1.8-0.2,2.7,0
	c10.1,2.2,60.7,14.5,60.7,41.2C156.4,241.8,127.1,282,91,282z M94.2,188c-22.7,4.6-54.9,16.3-54.9,27.5c0,19.9,24.2,52.8,51.7,52.8
	c27.6,0,51.7-32.9,51.7-52.8C142.7,204.2,114.3,192.6,94.2,188z"/>
<path class="st0" d="M91,252.5c-19.7,0-35.7-16-35.7-35.7v-18.1c0-9.7,7.9-17.6,17.6-17.6h36.2c9.7,0,17.6,7.9,17.6,17.6v18.1
	C126.7,236.5,110.7,252.5,91,252.5z"/>
<path class="st1" d="M91,259.3c-23.4,0-42.5-19.1-42.5-42.5v-18.1c0-13.5,10.9-24.4,24.4-24.4h36.2c13.5,0,24.4,10.9,24.4,24.4v18.1
	C133.5,240.2,114.5,259.3,91,259.3z M72.9,187.9c-5.9,0-10.8,4.8-10.8,10.8v18.1c0,15.9,13,28.9,28.9,28.9s28.9-13,28.9-28.9v-18.1
	c0-5.9-4.8-10.8-10.8-10.8H72.9z"/>
<path class="st1" d="M113.7,207c0,3.6-2.9,6.5-6.5,6.5c-3.6,0-6.5-2.9-6.5-6.5s2.9-6.5,6.5-6.5C110.8,200.6,113.7,203.5,113.7,207z"
	/>
<path class="st1" d="M81.3,207c0,3.6-2.9,6.5-6.5,6.5c-3.6,0-6.5-2.9-6.5-6.5s2.9-6.5,6.5-6.5C78.4,200.6,81.3,203.5,81.3,207z"/>
<path class="st2" d="M123.9,73.8c0,22.5-26.2,59.6-58.6,59.6S6.8,96.3,6.8,73.8s54.6-34.5,54.6-34.5S123.9,51.3,123.9,73.8z"/>
<path class="st1" d="M65.4,140.2C29.3,140.2,0,100,0,73.8c0-26.7,50-39,60-41.2c0.9-0.2,1.8-0.2,2.7,0c11.4,2.2,68,14.4,68,41.2
	C130.8,100,101.5,140.2,65.4,140.2z M61.6,46.2c-19.8,4.6-47.9,16.2-47.9,27.5c0,19.9,24.2,52.8,51.7,52.8
	c27.6,0,51.7-32.9,51.7-52.8C117.1,63,85.3,51,61.6,46.2z"/>
<path class="st3" d="M211.8,88.1c-12.7,20.6-35.5,34.3-61.4,34.3c-16.3,0-43.3,29.1-43.3,29.1c0,55.2,43.7,99.9,97.5,99.9
	c53.8,0,97.5-44.7,97.5-99.9v-44.6C270.1,81.7,240.4,81.7,211.8,88.1z"/>
<path class="st1" d="M204.6,258.2c-57.5,0-104.3-47.9-104.3-106.7c0-1.7,0.7-3.4,1.8-4.7c4.9-5.2,30-31.3,48.3-31.3
	c22.8,0,43.6-11.6,55.6-31.1c1-1.6,2.5-2.7,4.3-3.1c25.5-5.7,59.4-8.6,96,20c1.7,1.3,2.6,3.3,2.6,5.4v44.6
	C308.9,210.3,262.1,258.2,204.6,258.2z M113.9,154.2c1.4,50.1,41.5,90.4,90.6,90.4c50,0,90.7-41.7,90.7-93v-41.3
	c-29.6-22-56.5-20.8-79.2-16.1c-14.7,22-39.1,35-65.6,35C141.8,129.2,124.6,143.2,113.9,154.2z"/>
<path class="st1" d="M237.1,165.3c-1.2,0-2.4-0.3-3.6-1c-3.2-2-4.2-6.2-2.3-9.4c10.8-17.6,30.2-12,36.6-10.2c3.6,1,5.7,4.8,4.7,8.4
	c-1,3.6-4.8,5.7-8.4,4.7c-13.9-4-18.4-0.3-21.2,4.2C241.6,164.2,239.4,165.3,237.1,165.3z"/>
<path class="st1" d="M172.1,165.3c-2.3,0-4.5-1.2-5.8-3.3c-2.8-4.5-7.3-8.2-21.2-4.2c-3.6,1-7.4-1.1-8.4-4.7c-1-3.6,1.1-7.4,4.7-8.4
	c6.4-1.8,25.8-7.4,36.6,10.2c2,3.2,1,7.4-2.3,9.4C174.5,165,173.3,165.3,172.1,165.3z"/>
<path class="st2" d="M311.8,41.3c0,22.5-26.2,59.6-58.6,59.6s-58.6-37.1-58.6-59.6s61.8-34.5,61.8-34.5S311.8,18.8,311.8,41.3z"/>
<path class="st1" d="M253.3,107.7c-36.1,0-65.4-40.2-65.4-66.4c0-26.8,56.1-39,67.3-41.2c0.9-0.2,1.8-0.2,2.7,0
	c10.1,2.2,60.7,14.5,60.7,41.2C318.7,67.5,289.4,107.7,253.3,107.7z M256.4,13.8c-23.5,4.8-54.9,16.7-54.9,27.5
	c0,19.9,24.2,52.8,51.7,52.8c27.6,0,51.7-32.9,51.7-52.8C305,30,276.5,18.4,256.4,13.8z"/>
<path class="st0" d="M65.4,110.7c-19.7,0-35.7-16-35.7-35.7V56.9c0-9.7,7.9-17.6,17.6-17.6h36.2c9.7,0,17.6,7.9,17.6,17.6V75
	C101.1,94.7,85.1,110.7,65.4,110.7z"/>
<path class="st1" d="M65.4,117.5c-23.4,0-42.5-19.1-42.5-42.5V56.9c0-13.5,10.9-24.4,24.4-24.4h36.2c13.5,0,24.4,10.9,24.4,24.4V75
	C107.9,98.4,88.8,117.5,65.4,117.5z M47.3,46.1c-5.9,0-10.8,4.8-10.8,10.8V75c0,15.9,13,28.9,28.9,28.9s28.9-13,28.9-28.9V56.9
	c0-5.9-4.8-10.8-10.8-10.8H47.3z"/>
<path class="st0" d="M253.3,78.2c-19.7,0-35.7-16-35.7-35.7V24.4c0-9.7,7.9-17.6,17.6-17.6h36.2c9.7,0,17.6,7.9,17.6,17.6v18.1
	C289,62.2,273,78.2,253.3,78.2z"/>
<path class="st1" d="M253.3,85c-23.5,0-42.5-19.1-42.5-42.5V24.4c0-13.5,11-24.4,24.4-24.4h36.2c13.5,0,24.4,10.9,24.4,24.4v18.1
	C295.8,66,276.7,85,253.3,85z M235.2,13.6c-5.9,0-10.8,4.8-10.8,10.8v18.1c0,15.9,13,28.9,28.9,28.9h0c15.9,0,28.9-13,28.9-28.9
	V24.4c0-5.9-4.8-10.8-10.8-10.8H235.2z"/>
<path class="st1" d="M88.1,65.2c0,3.6-2.9,6.5-6.5,6.5c-3.6,0-6.5-2.9-6.5-6.5c0-3.6,2.9-6.5,6.5-6.5C85.2,58.7,88.1,61.7,88.1,65.2
	z"/>
<path class="st1" d="M55.6,65.2c0,3.6-2.9,6.5-6.5,6.5c-3.6,0-6.5-2.9-6.5-6.5c0-3.6,2.9-6.5,6.5-6.5C52.7,58.7,55.6,61.7,55.6,65.2
	z"/>
<path class="st1" d="M276,32.8c0,3.6-2.9,6.5-6.5,6.5c-3.6,0-6.5-2.9-6.5-6.5c0-3.6,2.9-6.5,6.5-6.5C273.1,26.3,276,29.2,276,32.8z"
	/>
<path class="st1" d="M243.5,32.8c0,3.6-2.9,6.5-6.5,6.5c-3.6,0-6.5-2.9-6.5-6.5c0-3.6,2.9-6.5,6.5-6.5
	C240.6,26.3,243.5,29.2,243.5,32.8z"/>
<path class="st2" d="M422.2,177.6c0,22.5-26.2,59.6-58.6,59.6s-58.6-37.1-58.6-59.6s61.8-34.5,61.8-34.5S422.2,155.1,422.2,177.6z"
	/>
<path class="st1" d="M363.6,244c-36.1,0-65.4-40.2-65.4-66.4c0-26.8,56.1-39,67.3-41.2c0.9-0.2,1.8-0.2,2.7,0
	c10.1,2.2,60.7,14.5,60.7,41.2C429,203.8,399.7,244,363.6,244z M366.8,150.1c-22.7,4.6-54.9,16.3-54.9,27.5
	c0,19.9,24.2,52.8,51.7,52.8c27.6,0,51.7-32.9,51.7-52.8C415.4,166.3,386.9,154.7,366.8,150.1z"/>
<path class="st0" d="M363.6,214.5c-19.7,0-35.7-16-35.7-35.7v-18.1c0-9.7,7.9-17.6,17.6-17.6h36.2c9.7,0,17.6,7.9,17.6,17.6v18.1
	C399.3,198.5,383.3,214.5,363.6,214.5z"/>
<path class="st1" d="M363.6,221.3c-23.5,0-42.5-19.1-42.5-42.5v-18.1c0-13.5,10.9-24.4,24.4-24.4h36.2c13.5,0,24.4,10.9,24.4,24.4
	v18.1C406.1,202.3,387.1,221.3,363.6,221.3z M345.5,150c-5.9,0-10.8,4.8-10.8,10.8v18.1c0,15.9,13,28.9,28.9,28.9
	c15.9,0,28.9-13,28.9-28.9v-18.1c0-5.9-4.8-10.8-10.8-10.8H345.5z"/>
<path class="st1" d="M386.3,169.1c0,3.6-2.9,6.5-6.5,6.5c-3.6,0-6.5-2.9-6.5-6.5c0-3.6,2.9-6.5,6.5-6.5
	C383.4,162.6,386.3,165.5,386.3,169.1z"/>
<path class="st1" d="M353.9,169.1c0,3.6-2.9,6.5-6.5,6.5c-3.6,0-6.5-2.9-6.5-6.5c0-3.6,2.9-6.5,6.5-6.5
	C351,162.6,353.9,165.5,353.9,169.1z"/>
</svg>
