<?xml version="1.0" encoding="utf-8"?>
<!-- Generator: Adobe Illustrator 22.0.1, SVG Export Plug-In . SVG Version: 6.00 Build 0)  -->
<svg version="1.1" id="Layer_1" xmlns="http://www.w3.org/2000/svg" xmlns:xlink="http://www.w3.org/1999/xlink" x="0px" y="0px"
	 viewBox="0 0 92.6 82" style="enable-background:new 0 0 92.6 82;" xml:space="preserve">
<style type="text/css">
	.st0{fill:#7EAA39;stroke:#000000;stroke-width:0.5108;stroke-miterlimit:10;}
	.st1{fill:#29ABE2;stroke:#000000;stroke-width:0.5108;stroke-miterlimit:10;}
	.st2{fill:#FFFF00;stroke:#000000;stroke-width:0.5108;stroke-miterlimit:10;}
	.st3{fill:#FF0000;stroke:#000000;stroke-width:0.5108;stroke-miterlimit:10;}
	.st4{fill:#662D91;stroke:#000000;stroke-width:0.5108;stroke-miterlimit:10;}
	.st5{fill:none;stroke:#000000;stroke-width:0.5108;stroke-miterlimit:10;}
	.st6{fill:#8CC63F;stroke:#000000;stroke-width:0.5108;stroke-miterlimit:10;}
	.st7{fill:#ED1E79;}
</style>
<path class="st0" d="M47.9,82c0,0-30.5-2.5-33.4-2.8c-2.3-0.2-7.9,1-10,1.5c-0.4,0.1-0.7-0.3-0.6-0.6l1-3.8c0.1-0.3,0-0.6-0.3-0.7
	l-3.4-1.5c-0.4-0.2-0.5-0.7-0.1-1l3.3-2.7c0.2-0.2,0.3-0.5,0.1-0.7l-2-3.5c-0.2-0.4,0.1-0.9,0.6-0.8l4,0.5c0.4,0.1,0.7-0.3,0.6-0.6
	l-0.3-3.6c0-0.5,0.4-0.8,0.8-0.5c0,0,3.5,2.5,4.9,2.7c1.3,0.2,28.1-4.4,30.8-4.9l1.1,2.5c1.5,4.4,2.3,9,2.5,13.6L47.9,82z"/>
<path class="st0" d="M56.9,150.4l-11-5.1c-4.8-2.2-7.9-7.1-7.9-12.4l0-4.9c0-3.5,4-5.6,6.9-3.5l2.5,1.8c2.1,1.5,4.8,2.2,7.4,1.8
	l33.2-4.7L56.9,150.4z"/>
<path class="st1" d="M156.1,101.4l-2.2,9c-0.2,0.6-0.9,0.8-1.4,0.4l-6.7-6.4c-0.5-0.4-0.3-1.2,0.3-1.4l8.9-2.6
	C155.7,100.2,156.2,100.8,156.1,101.4z"/>
<path class="st2" d="M90.8,28.8l-3.2,8.7c-0.2,0.6-1,0.7-1.4,0.3l-5.9-7.1c-0.4-0.5-0.1-1.2,0.5-1.4l9.1-1.6
	C90.5,27.6,91,28.2,90.8,28.8z"/>
<path class="st3" d="M78.3,12.9l-3.2,8.7c-0.2,0.6-1,0.7-1.4,0.3l-5.9-7.1c-0.4-0.5-0.1-1.2,0.5-1.4l9.1-1.6
	C78,11.7,78.5,12.3,78.3,12.9z"/>
<path class="st3" d="M103.1,42.9l-3.2,8.7c-0.2,0.6-1,0.7-1.4,0.3l-5.9-7.1c-0.4-0.5-0.1-1.2,0.5-1.4l9.1-1.6
	C102.8,41.7,103.3,42.3,103.1,42.9z"/>
<path class="st2" d="M115.2,56.4l-3.2,8.7c-0.2,0.6-1,0.7-1.4,0.3l-5.9-7.1c-0.4-0.5-0.1-1.2,0.5-1.4l9.1-1.6
	C114.9,55.2,115.4,55.8,115.2,56.4z"/>
<path class="st4" d="M141.2,86.4l-3.2,8.7c-0.2,0.6-1,0.7-1.4,0.3l-5.9-7.1c-0.4-0.5-0.1-1.2,0.5-1.4l9.1-1.6
	C140.9,85.2,141.5,85.8,141.2,86.4z"/>
<path class="st4" d="M126.6,70.1l-2.4,8.9c-0.2,0.6-0.9,0.8-1.4,0.4l-6.5-6.5c-0.5-0.5-0.2-1.2,0.4-1.4l8.9-2.4
	C126.2,68.9,126.7,69.5,126.6,70.1z"/>
<path class="st3" d="M172.2,114.6l-1.4,9.1c-0.1,0.6-0.9,0.9-1.3,0.5l-7.2-5.8c-0.5-0.4-0.4-1.2,0.2-1.4l8.6-3.3
	C171.6,113.5,172.3,114,172.2,114.6z"/>
<path class="st3" d="M188.7,125.8l-0.7,9.2c0,0.6-0.8,1-1.3,0.6l-7.6-5.2c-0.5-0.4-0.5-1.2,0.1-1.4l8.3-4
	C188.1,124.7,188.8,125.2,188.7,125.8z"/>
<path class="st2" d="M209,135.8l2.3,8.9c0.2,0.6-0.4,1.2-1,1l-8.9-2.5c-0.6-0.2-0.8-1-0.4-1.4l6.6-6.4
	C208.1,135,208.9,135.2,209,135.8z"/>
<path class="st4" d="M233.4,140.8l3.4,8.6c0.2,0.6-0.3,1.2-0.9,1.1l-9.1-1.3c-0.6-0.1-0.9-0.8-0.5-1.3l5.7-7.2
	C232.3,140.1,233.1,140.2,233.4,140.8z"/>
<path class="st2" d="M79.3,112.2c0,1.9-0.3,3.9-0.8,5.8c-1.1,3.6-3.6,6.7-7,8.4l-9,4.6l-6.3-6.7c-7-7.4-10.2-20.3-10.3-27.6
	l-0.3-6.8l-0.3-6.7c-0.2-4.6-1-9.2-2.5-13.6l-1.1-2.5l-4.4-10.1c0.3,0.2,0.5,0.4,0.8,0.6c0.6,0.4,1.3,0.6,2.1,0.8
	c4.8,0.9,9.2,3.2,12.8,6.5c5.5,5.1,10.1,11.1,13.6,17.8l10.2,19.9C78.4,105.5,79.3,108.9,79.3,112.2z"/>
<line class="st5" x1="37.3" y1="56.9" x2="37.3" y2="56.9"/>
<path class="st5" d="M41.9,67c0,0-0.1,0-0.2,0"/>
<path class="st5" d="M17.2,149.8"/>
<path class="st5" d="M43.8,72.9l8.1-0.3c3.1-0.1,6.1,0.7,8.7,2.3l2.3,1.4"/>
<path class="st5" d="M50.8,116.4l15.9,0.2c3.1,0,6.1,0.9,8.8,2.5l2,1.2"/>
<path class="st5" d="M45.4,88h14c3,0,6,0.8,8.5,2.5l3.8,2.4"/>
<path class="st5" d="M46.3,102h18c3.1,0,6.2,0.8,9,2.3l5.4,2.9"/>
<path class="st1" d="M52.1,1.3l5,7.7c0.3,0.5,0,1.3-0.7,1.3l-9.2,0.5c-0.6,0-1.1-0.6-0.8-1.2l4.2-8.2C50.9,0.8,51.7,0.8,52.1,1.3z"
	/>
<path class="st6" d="M251.4,157.9c-3.1,0-31.7-1-31.7-1l-172.4-3.1c-2.5,0-4.8-1.4-6-3.6l-6.1-11c-1.4-2.5-1.5-5.6-0.3-8.2
	c0.1-0.3,0.4-0.6,0.7-0.9c1.8-1.7,4.6-1.8,6.6-0.3l5.4,4c2.5,1.6,5.7,1.8,8.4,0.4l6.4-3.3l9-4.6c3.4-1.7,5.9-4.8,7-8.4
	c0.6-1.9,0.8-3.9,0.8-5.8c0-3.4-0.8-6.7-2.5-9.7L66.5,82.5c-3.4-6.7-8.1-12.8-13.6-17.8c-3.6-3.3-8-5.5-12.8-6.5
	c-0.7-0.1-1.4-0.4-2.1-0.8c-0.3-0.2-0.5-0.4-0.8-0.6v0c-0.3-0.3-0.6-0.6-0.9-0.9c-1.8-2.1-3.8-4-6-5.6c-2.2-1.6-4.7-2.9-7.3-3.9
	c-2.9-1.1-5.8-2.3-7.7-3.4c-1.2-0.7-4.1-4.2-4.1-8.3s1.5-6.6,4.1-8.1c2.6-1.5,11.1-2.6,13.8-4.7c2.7-2,6.4-8.5,10.7-10.2
	c4.3-1.7,17.6-4.3,24.5-0.5c6.9,3.8,17.2,19.9,22.4,25.5c5.2,5.6,53.3,61.9,60.9,68.4c7.7,6.6,31.7,27.1,47.8,34.3
	c13.2,6,54.6,11.1,56.4,11.6c2,0.5,3.7,1,4.1,3.1S254.4,157.9,251.4,157.9z"/>
<path class="st6" d="M77.3,90L37.5,75.7c-0.3-0.1-0.7-0.1-1,0.2l-4.3,3.3c-0.7,0.6-1.7,0.1-1.8-0.8l-0.3-4.2c0-0.6-0.6-1.1-1.2-1
	l-5,0.3c-0.9,0-1.5-0.9-1.1-1.6l2.5-4.9c0.3-0.5,0.1-1.1-0.4-1.4l-4.1-2.7c-0.8-0.5-0.6-1.6,0.2-2l4.9-1.9c0.7-0.3,0.9-1.2,0.4-1.8
	l0,0c-0.8-0.9,0.2-2.3,1.3-1.8l8.5,3.6c2,0.8,4.2,1.3,6.4,1.4l41.5,1.8"/>
<path class="st5" d="M45.2,20.6L40,23c-0.4,0.2-0.4,0.7,0,0.9l4.6,2.1"/>
<path class="st5" d="M24.4,33.8c-0.6,3.6-3.6,5.8-6.3,5.3c-1.6-0.3-3.1-1.5-3.8-3.2c-0.1-0.2-0.3-0.2-0.4,0
	c-0.1,0.4-0.3,0.9-0.6,1.4c-0.3,0.4-0.9,0.9-1.2,1"/>
<ellipse class="st7" cx="45.6" cy="32" rx="3.9" ry="1.4"/>
</svg>
